<svg width="70" height="84" viewBox="0 0 70 84" fill="none" xmlns="http://www.w3.org/2000/svg">
<path d="M64.3636 30.5523C61.3462 26.5179 57.2656 23.6696 52.8733 22.5321C49.952 21.7761 46.4208 21.8397 42.3756 22.7217L42.3755 22.7207C42.3574 22.725 42.3193 22.7337 42.2582 22.7474C42.1524 22.7686 42.0482 22.7929 41.9461 22.8168C41.6922 22.8761 41.301 22.9698 40.8818 23.0789C40.332 23.2213 39.7731 23.3454 39.2158 23.449C39.2073 23.0324 39.1917 22.6042 39.1672 22.1663C39.6435 16.861 41.7971 12.301 45.5869 8.58588C48.8669 5.37055 52.2139 4.01593 52.244 4.00386C53.0711 3.67881 53.4782 2.74467 53.1532 1.91755C52.8281 1.09026 51.894 0.683459 51.067 1.00835C50.9098 1.07031 47.1741 2.56299 43.4359 6.18834C41.4557 8.10891 39.2578 10.8603 37.7394 14.5531C36.9285 12.255 35.7078 10.0554 33.8982 8.24778C26.6043 0.961849 12.9345 3.23049 12.1291 3.37193C12.1285 3.3721 12.1278 3.3721 12.1272 3.37226C11.5376 3.46656 11.0423 3.87851 10.8677 4.44945C10.8419 4.53361 10.8213 4.61214 10.8096 4.67763C10.717 5.1974 8.8433 16.1632 13.564 23.7536C7.03119 26.8864 0.126953 34.6372 0.126953 47.5188C0.126953 52.0881 1.51923 57.673 4.04759 63.2445C6.52461 68.7032 9.87012 73.6913 13.4675 77.2895C17.387 81.2135 21.4143 83.2876 25.1137 83.2876C27.2801 83.2876 29.5121 82.9598 31.5693 82.3391C33.5956 81.7265 35.7477 81.6876 37.7939 82.2263C37.801 82.2283 37.8083 82.2302 37.8153 82.232C37.9418 82.2654 38.0678 82.3012 38.1945 82.3395C40.2507 82.9596 42.4826 83.2876 44.6491 83.2876C48.1887 83.2876 52.0467 81.3791 55.8053 77.769C63.5606 70.3301 69.6357 57.0427 69.6357 47.5188C69.635 41.0299 67.8123 35.163 64.3636 30.5523ZM31.6232 10.525C34.6996 13.5982 35.7033 18.287 35.934 22.2288C35.8771 22.9524 35.8471 26.1138 35.8471 26.1138L23.6414 13.9212C23.0126 13.2931 21.9936 13.2934 21.3657 13.9224C20.7376 14.5511 20.7381 15.5701 21.3668 16.1983L33.6574 28.4756C29.4541 28.7008 22.1816 28.3815 17.9621 24.1665C12.8941 19.104 13.4512 9.65744 13.822 6.38869C17.0936 6.01825 26.5537 5.46083 31.6232 10.525ZM53.5759 75.4471C50.4277 78.4708 47.3405 80.0692 44.6483 80.0692C42.819 80.0692 40.8569 79.7812 39.1239 79.2585C38.9633 79.2099 38.8021 79.1644 38.6404 79.1216C38.6378 79.1209 38.6354 79.1201 38.633 79.1195C36.005 78.4238 33.2401 78.4718 30.6382 79.2582C28.9044 79.7812 26.9422 80.0692 25.1129 80.0692C22.2863 80.0692 19.0465 78.3215 15.7432 75.0144C8.79068 68.0601 3.34469 55.9825 3.34469 47.5188C3.34469 35.6917 9.79063 28.8305 15.6054 26.3608C15.6326 26.3885 15.6602 26.4162 15.6877 26.4437C20.0986 30.8498 26.8741 31.7555 31.7007 31.7553C34.7622 31.7553 37.0436 31.4087 37.4309 31.3241C38.716 31.0428 38.6846 30.4437 38.7646 30.0739C38.7656 30.0692 38.7667 30.0646 38.7677 30.0599C38.7688 30.0547 38.7697 30.0494 38.7709 30.0443C38.7722 30.0377 38.7735 30.0311 38.7747 30.0243C38.7752 30.0214 38.7759 30.0187 38.7763 30.0158C38.8064 29.8478 39.0235 28.5881 39.1439 26.7036C39.2382 26.7042 39.3338 26.6967 39.4298 26.6803C40.1837 26.5509 40.9436 26.3876 41.69 26.1943C41.977 26.1195 42.2548 26.0514 42.4855 25.9965C49.1239 28.3115 55.6889 35.7778 55.6889 47.519C55.6889 50.9583 54.8018 55.0596 53.1233 59.38C52.8014 60.2083 53.2121 61.1408 54.0405 61.4626C54.232 61.537 54.4291 61.5724 54.6229 61.5724C55.2673 61.5724 55.8758 61.1823 56.1233 60.5454C57.9446 55.8573 58.9073 51.3529 58.9073 47.519C58.9073 36.824 53.9888 29.2128 48.0517 25.2297C49.5291 25.199 50.8709 25.3384 52.0668 25.6478C58.9783 27.4377 66.4169 35.0453 66.4169 47.5188C66.4166 56.127 60.6567 68.6554 53.5759 75.4471Z" fill="white"/>
</svg>
