<svg width="83" height="77" viewBox="0 0 83 77" fill="none" xmlns="http://www.w3.org/2000/svg">
<path d="M82.1942 10.7483C81.9511 10.4007 81.6 10.173 81.2175 10.0794C80.4392 9.87212 71.5575 7.64161 65.3302 11.9263C64.9228 12.2066 64.5388 12.5086 64.1756 12.8269C64.5662 9.82143 64.7691 6.77764 64.7691 3.71051C64.7691 2.78201 64.0165 2.02939 63.088 2.02939C62.1594 2.02939 61.4068 2.78201 61.4068 3.71051C61.4068 5.37732 61.3444 7.03012 61.2253 8.6678C57.7961 3.40718 50.9926 1.09155 49.8218 0.725134C49.4537 0.590766 49.0373 0.583847 48.6429 0.735433C48.2414 0.889594 47.933 1.18102 47.7509 1.53601C47.3993 2.18918 43.7345 9.23021 45.3825 15.8752C45.2396 15.871 45.0941 15.8837 44.9483 15.9179C44.5439 16.0128 44.2082 16.2466 43.9796 16.5572C43.5304 17.142 38.9701 23.2568 39.3105 29.915C37.7179 28.7684 36.3842 28.0671 35.9379 27.8433C35.5915 27.65 35.1754 27.5778 34.7576 27.6698C34.3596 27.7572 34.0257 27.9793 33.7934 28.2778C33.5916 28.5359 29.6994 33.5894 29.1436 39.56C27.9514 38.3674 26.9488 37.5805 26.5855 37.3065C26.2878 37.0591 25.9003 36.9093 25.4867 36.9193C25.0517 36.9257 24.6577 37.097 24.3629 37.3731C23.7728 37.9051 17.0521 44.1385 17.2499 51.7007C17.3952 57.1945 21.1934 61.7138 23.5909 64.028C16.8492 67.266 9.45302 69.4162 1.61254 70.2422C0.689346 70.3395 0.0195998 71.1668 0.116795 72.0902C0.207715 72.9538 0.937162 73.5953 1.78666 73.5953C1.84555 73.5953 1.90493 73.592 1.96479 73.5858C10.2792 72.7099 18.2843 70.3621 25.6518 66.7192C27.1699 69.1845 31.2835 74.9153 37.4356 76.3138C38.4245 76.5383 39.412 76.6368 40.3845 76.6368C46.5013 76.6366 51.9953 72.7397 53.1764 71.8396C53.3361 71.7379 53.4801 71.6082 53.6003 71.4536C53.9928 70.9486 54.0647 70.2645 53.7858 69.6889C53.6444 69.3972 51.0008 64.04 46.2275 60.7853C48.3545 61.8662 50.8576 62.7005 53.5258 62.7002C53.7577 62.7002 53.992 62.6938 54.2263 62.6809C61.4203 62.2797 66.7883 55.6083 67.8042 54.2498C67.9287 54.1094 68.0307 53.9467 68.1038 53.7669C68.3452 53.1722 68.2268 52.4918 67.7987 52.0135C67.6296 51.8245 65.0755 49.0129 61.3096 46.9912C63.3565 46.8987 65.4918 46.4679 67.4704 45.4477C73.8803 42.1402 76.049 33.8665 76.4214 32.2068C76.4764 32.032 76.5033 31.8466 76.4982 31.6572C76.4806 31.0105 76.0936 30.4313 75.503 30.1676C75.3265 30.0887 73.2648 29.1854 70.4075 28.6236C72.1416 28.2528 73.8753 27.6011 75.439 26.5245C81.5317 22.3305 82.3901 13.2954 82.487 11.9066C82.5327 11.5117 82.4396 11.0993 82.1942 10.7483ZM61.934 28.6818C61.2572 28.8592 60.586 29.0894 59.9288 29.3815C60.0612 29.0431 60.1904 28.7036 60.3176 28.3631C60.7471 28.4623 61.2942 28.5759 61.934 28.6818ZM50.1106 4.40198C52.5548 5.37667 57.6001 7.85177 59.2748 12.1795C60.9529 16.5155 59.017 21.7274 57.9314 24.084C56.7535 23.5868 54.9485 22.7096 53.2258 21.4141C52.4193 20.5319 51.5632 19.7524 50.7326 19.0796C50.0213 18.2285 49.4167 17.2728 49.004 16.2062C47.3347 11.8892 49.0954 6.75495 50.1106 4.40198ZM57.123 27.3816C57.0441 27.5913 56.9675 27.8021 56.8866 28.0106C56.8232 27.735 56.7513 27.4634 56.6698 27.1964C56.8301 27.2636 56.9815 27.3254 57.123 27.3816ZM45.8493 19.7635C46.5448 20.1813 47.4615 20.7802 48.4246 21.5409C49.1974 22.4161 50.0469 23.1921 50.9165 23.8702C52.1755 25.2879 53.2373 26.9838 53.6439 28.9128C54.6031 33.4621 51.8543 38.295 50.4041 40.4467C48.2344 39.0835 43.8236 35.8098 42.8597 31.2361C41.9061 26.7083 44.4691 21.9234 45.8493 19.7635ZM46.9818 42.1753C47.5549 42.5965 48.0898 42.956 48.5521 43.2484C47.9429 44.0826 47.3137 44.9014 46.6669 45.7057C46.8985 44.5683 47.0219 43.3818 46.9818 42.1753ZM35.6346 31.52C37.8904 32.8751 42.4726 36.1293 43.4296 40.6698C44.3888 45.2192 41.64 50.0521 40.1898 52.2036C38.0201 50.8404 33.6093 47.5667 32.6454 42.9932C31.691 38.4609 34.2547 33.6777 35.6346 31.52ZM40.5436 56.8109C41.313 57.516 42.5496 58.5578 44.1209 59.5719C43.2669 59.1674 42.3599 58.8417 41.4013 58.6241C40.514 58.4225 39.6265 58.3275 38.7497 58.3161C39.3554 57.8248 39.9534 57.3231 40.5436 56.8109ZM37.9005 54.7218C36.39 56.0074 34.8205 57.2272 33.1959 58.3765C34.1009 56.6154 34.7965 54.6174 34.9636 52.4817C36.0165 53.4098 37.0465 54.1581 37.9005 54.7218ZM20.6113 51.6116C20.4902 46.983 23.8745 42.7399 25.6211 40.8658C27.5954 42.6059 31.5156 46.6335 31.6379 51.2714C31.761 55.9189 28.1857 60.177 26.3711 62.0317C24.4829 60.2998 20.7349 56.2848 20.6113 51.6116ZM50.0676 69.9218C47.8791 71.3574 42.8977 74.1059 38.1805 73.0349C33.5074 71.9725 30.1284 67.4802 28.7188 65.2765C30.9369 63.7578 35.9754 60.84 40.6569 61.9029C45.3485 62.9678 48.6939 67.6556 50.0676 69.9218ZM64.2863 53.2612C62.61 55.1993 58.706 59.0633 54.0393 59.3233C49.4133 59.5826 45.0738 56.321 43.1512 54.6307C44.8323 52.6065 48.7436 48.5697 53.3765 48.3116C58.0196 48.0538 62.3793 51.5018 64.2863 53.2612ZM72.8067 32.7407C72.0682 35.1942 70.0828 40.3158 65.9288 42.4593C61.8115 44.5823 56.5194 43.3799 54.0736 42.622C54.7813 40.0875 56.7028 34.8059 60.8267 32.6781C64.9583 30.5461 70.3474 31.9134 72.8067 32.7407ZM73.5321 23.7546C69.7024 26.3915 64.1838 25.7148 61.64 25.2044C62.0632 22.677 63.3865 17.346 67.2366 14.6957C71.051 12.0714 76.4531 12.5958 78.9765 13.0384C78.594 15.6419 77.3546 21.1234 73.5321 23.7546Z" fill="white"/>
</svg>
