<svg width="83" height="65" viewBox="0 0 83 65" fill="none" xmlns="http://www.w3.org/2000/svg">
<path d="M68.443 21.1879C69.7036 22.2071 70.8568 23.3536 71.8424 24.6007C72.8012 25.8076 73.5991 27.1084 74.1959 28.4762C75.8989 32.3717 75.7179 36.0594 74.4641 39.4856C73.2438 42.8113 71.0177 45.8553 68.5503 48.5842C68.5168 48.6177 68.4833 48.6513 68.4497 48.6848C66.4651 50.5823 64.1854 52.178 61.604 53.4654C59.0226 54.7594 56.1462 55.7384 52.9748 56.4021C50.0984 57.0056 46.9605 57.3475 43.5678 57.428C40.1885 57.5085 36.5679 57.3207 32.7058 56.8715C30.1982 56.5832 27.8649 56.1675 25.7059 55.6378C23.5402 55.1081 21.5489 54.4577 19.7385 53.6866C17.3784 52.6876 14.2338 50.7968 11.6591 48.5574C9.56048 46.7269 7.79708 44.635 7.05284 42.523C6.78464 41.7586 6.64384 40.9942 6.63713 40.2634C6.63043 39.1437 6.94556 38.1111 7.60264 37.2261C8.23961 36.3746 9.1783 35.6974 10.4321 35.2548C11.458 34.8928 12.7118 34.6849 14.207 34.6782H14.2338C24.09 34.8458 29.2528 30.0585 34.3418 25.345C38.8408 21.1745 43.2795 17.0577 50.6884 15.9916C53.8129 15.5424 56.9508 15.824 59.9211 16.6956C63.0121 17.6008 65.922 19.1496 68.443 21.1879ZM61.2956 1.05978C63.0724 1.53582 64.8023 2.17279 66.4517 2.95727C68.1212 3.75515 69.7304 4.70725 71.2457 5.79345C75.6307 8.93805 78.487 12.4715 80.2169 16.5682C81.9333 20.6247 82.5167 25.1908 82.3624 30.4407C82.282 33.2031 81.9266 35.9253 81.3701 38.4196C80.7868 41.0345 79.9755 43.4013 79.01 45.3256C78.9899 45.3591 78.9698 45.3994 78.9496 45.4329C73.7399 55.7585 62.9383 61.7393 50.9633 63.9385C44.9021 65.0515 38.5458 65.1923 32.4645 64.4346C26.363 63.677 20.523 62.0142 15.5346 59.5199C15.501 59.4998 15.4675 59.4864 15.434 59.4663C7.57582 55.5104 1.80289 49.4626 0.361332 41.5977C0.1803 40.592 0.0797259 39.5728 0.0327915 38.4866C-0.0141429 37.4473 -0.00743803 36.3209 0.0059718 35.0671C0.0260865 33.4177 0.0462013 31.48 0.321103 29.6227C0.616119 27.6314 1.19274 25.707 2.33258 24.2186C3.49253 22.7032 5.08159 21.6573 6.99249 20.9667C8.81623 20.3163 10.9283 19.9945 13.2549 19.9207C13.2951 19.9207 13.3353 19.9207 13.3823 19.9207C15.6217 20.0749 17.7807 19.7866 19.8592 19.0893C21.9646 18.3853 24.0096 17.2588 26.0076 15.7502C28.1532 14.1344 30.1379 12.4246 32.0823 10.7618C40.2489 3.75515 47.6243 -2.58099 61.2956 1.05978ZM65.3521 5.25705C63.8301 4.53292 62.2544 3.94289 60.6452 3.52048C48.2612 0.221661 41.3686 6.1421 33.7384 12.6861C31.7537 14.3891 29.7222 16.1391 27.5431 17.7751C25.3304 19.4447 23.0441 20.6918 20.6705 21.4897C18.2836 22.2875 15.8162 22.6228 13.2616 22.4552C11.2166 22.5289 9.38615 22.8038 7.85743 23.3536C6.39576 23.8766 5.20899 24.6544 4.35746 25.7607C3.51935 26.8536 3.08353 28.3756 2.84215 29.9915C2.58736 31.7348 2.56054 33.5518 2.54713 35.0872C2.53373 36.2874 2.53373 37.3669 2.57395 38.386C2.61418 39.3582 2.70135 40.2634 2.86227 41.1418C4.1429 48.1484 9.39956 53.5861 16.5939 57.2067C16.6275 57.2201 16.6543 57.2335 16.6811 57.247C21.4148 59.6138 26.9664 61.1894 32.7863 61.9136C38.633 62.6377 44.7278 62.5036 50.5141 61.4442C61.7717 59.3791 71.8894 53.8208 76.6968 44.2797C76.7102 44.2528 76.7236 44.226 76.737 44.1925C77.6154 42.4358 78.3596 40.2634 78.896 37.8631C79.4257 35.5163 79.7542 32.9618 79.828 30.3737C79.9688 25.4724 79.4391 21.2483 77.8769 17.5539C76.328 13.8997 73.7466 10.7149 69.7572 7.85856C68.3961 6.87964 66.9143 6.0013 65.3521 5.25705ZM63.8301 32.1505C63.8301 33.9273 62.8511 35.5029 61.2688 36.6159C59.8205 37.6351 57.8359 38.2653 55.6702 38.2653C53.5045 38.2653 51.5198 37.6351 50.0716 36.6159C48.4892 35.5029 47.5103 33.9273 47.5103 32.1505C47.5103 30.3737 48.4892 28.798 50.0716 27.685C51.5198 26.6658 53.5045 26.0356 55.6702 26.0356C57.8359 26.0356 59.8205 26.6658 61.2688 27.685C62.8511 28.798 63.8301 30.3737 63.8301 32.1505ZM59.8071 34.5374C60.719 33.8937 61.2822 33.0489 61.2822 32.1505C61.2822 31.252 60.719 30.4072 59.8071 29.7635C58.7678 29.0327 57.3062 28.5767 55.6702 28.5767C54.0342 28.5767 52.5725 29.0327 51.5332 29.7635C50.6214 30.4072 50.0582 31.252 50.0582 32.1505C50.0582 33.0489 50.6214 33.8937 51.5332 34.5374C52.5725 35.2682 54.0342 35.7242 55.6702 35.7242C57.3062 35.7175 58.7678 35.2682 59.8071 34.5374ZM69.898 26.1295C69.0331 25.0433 68.0139 24.0308 66.8875 23.1122C64.6145 21.2818 61.9996 19.8872 59.2238 19.0692C56.5888 18.2981 53.8062 18.0433 51.0371 18.4456C44.3925 19.3977 40.2355 23.253 36.0248 27.1553C30.5737 32.2108 25.0421 37.3334 14.2003 37.1523C13.0135 37.159 12.0346 37.3132 11.2568 37.5949C10.4791 37.8698 9.92925 38.2519 9.5873 38.7146C9.26546 39.1437 9.11125 39.6734 9.11125 40.2567C9.11125 40.6992 9.20512 41.182 9.38615 41.6983C9.97618 43.3611 11.4714 45.1111 13.2884 46.6867C15.6754 48.7652 18.5518 50.4951 20.6973 51.407C22.3803 52.1244 24.2442 52.7278 26.2825 53.2307C28.3275 53.7336 30.5603 54.1225 32.9807 54.4041C36.7623 54.8466 40.269 55.0209 43.5142 54.9472C46.7392 54.8734 49.7229 54.5449 52.4652 53.975C55.4355 53.3514 58.1108 52.4462 60.491 51.2528C62.8377 50.0794 64.9163 48.6244 66.7266 46.8946C69.0063 44.3802 71.0446 41.6044 72.1308 38.6408C73.1834 35.7711 73.3376 32.6936 71.9162 29.4618C71.4066 28.2817 70.7227 27.1687 69.898 26.1295Z" fill="white"/>
</svg>
