<svg width="23" height="22" viewBox="0 0 23 22" fill="none" xmlns="http://www.w3.org/2000/svg">
<path d="M10.1044 0.583301L7.24683 6.64165L0.85646 7.61914C0.0365454 7.74456 -0.290238 8.79928 0.303356 9.40433L4.92657 14.1168L3.83548 20.7743C3.69536 21.6292 4.55291 22.2812 5.28654 21.8774L11.0011 18.7324L16.7156 21.8774C17.4493 22.2812 18.3068 21.6292 18.1667 20.7743L17.0756 14.1168L21.6988 9.40433C22.2924 8.79928 21.9656 7.74456 21.1457 7.61914L14.7554 6.64165L11.8978 0.583301C11.531 -0.194434 10.4712 -0.194434 10.1044 0.583301ZM8.05572 8.63318C8.38107 8.58342 8.66226 8.36945 8.8078 8.06089L11.0011 3.41085L13.1944 8.06089C13.3399 8.36945 13.6211 8.58342 13.9465 8.63318L18.8527 9.38365L15.3034 13.0015C15.0675 13.2419 14.9598 13.5884 15.0155 13.9281L15.8529 19.0378L11.4665 16.6238C11.1752 16.4634 10.827 16.4634 10.5356 16.6238L6.14927 19.0378L6.9867 13.9281C7.04236 13.5884 6.93469 13.2419 6.69882 13.0015L3.1495 9.38365L8.05572 8.63318Z" fill="black"/>
</svg>

