<svg width="81" height="81" viewBox="0 0 81 81" fill="none" xmlns="http://www.w3.org/2000/svg">
<path d="M80.7089 30.4213C80.4437 28.973 79.5824 27.7127 78.2835 26.8733C77.6694 26.4768 77.0283 26.1318 76.3743 25.8125C79.2181 24.9551 81.171 22.0985 80.7282 19.1697C80.5106 17.7356 79.7485 16.5023 78.5809 15.6964C78.447 15.6038 78.2976 15.5445 78.1573 15.466C78.1547 15.4493 78.156 15.4325 78.1535 15.4158C77.9359 13.9817 77.1738 12.7484 76.0061 11.9425C74.7947 11.1057 73.2924 10.8277 71.7849 11.1508C71.1232 11.2924 70.4692 11.4726 69.8242 11.6889C70.0405 11.0439 70.2207 10.3899 70.3624 9.72825C70.688 8.21688 70.4061 6.71711 69.5706 5.50699C68.7647 4.33935 67.5314 3.57724 66.0935 3.35839C66.078 3.35581 66.0626 3.3571 66.0458 3.35452C65.9673 3.2142 65.9081 3.06487 65.8154 2.93227C65.0095 1.76463 63.7762 1.00252 62.3408 0.784952C59.4172 0.339525 56.5567 2.29374 55.6993 5.14009C55.38 4.48611 55.035 3.84501 54.6385 3.23094C53.7992 1.93199 52.5388 1.07075 51.0906 0.80555C49.6938 0.55194 48.2841 0.884079 47.1178 1.74404C44.5199 3.65577 43.9637 7.5333 45.9012 10.211C47.1165 11.8897 48.1773 13.7204 49.0501 15.6501L49.3204 16.2474C44.1066 15.7467 38.9546 17.5683 35.1698 21.3531C34.2545 22.2684 33.437 23.288 32.7405 24.3848L1.69969 73.3264C0.512741 75.1983 0.779224 77.5979 2.34594 79.1633C3.25739 80.0761 4.45206 80.5472 5.6609 80.5472C6.52729 80.5472 7.40141 80.3052 8.18155 79.8096L57.1296 48.77C58.2264 48.0749 59.246 47.2574 60.1665 46.3356C63.9461 42.5559 65.7652 37.4065 65.2644 32.1901L65.863 32.4605C67.7928 33.3346 69.6234 34.3941 71.3034 35.6106C72.3822 36.3908 73.6554 36.7654 74.9183 36.7654C76.7863 36.7654 78.6285 35.9415 79.7704 34.3915C80.6303 33.2277 80.9638 31.8155 80.7089 30.4213ZM75.1951 23.4773C74.0185 23.6639 72.8392 23.9278 71.678 24.2445C69.5462 23.8351 67.3293 23.7759 65.1151 24.1081L64.9052 24.1402L65.1653 23.7875C67.5495 20.5575 71.0961 18.2364 74.9003 17.4215C75.7113 17.2451 76.4979 17.3868 77.1197 17.8154C77.6952 18.2145 78.0736 18.8325 78.1843 19.5572C78.4547 21.3454 77.0579 23.1773 75.1951 23.4773ZM72.3256 13.6663C73.1379 13.4899 73.9245 13.6315 74.545 14.0602C74.8308 14.2585 75.0676 14.5108 75.2479 14.803C74.9531 14.8198 74.6583 14.8416 74.3609 14.9047C69.8886 15.8638 65.8875 18.4759 63.0952 22.2594L61.3071 24.6835L58.1775 25.156L68.0786 15.2549C69.4303 14.5185 70.858 13.9804 72.3256 13.6663ZM66.6058 7.15095C66.6702 6.85357 66.6921 6.55876 66.7088 6.26525C67.0011 6.44548 67.2534 6.68106 67.4503 6.96686C67.8777 7.58736 68.0181 8.37523 67.8443 9.18627C67.5276 10.6577 66.9908 12.0854 66.2544 13.4358L56.3559 23.3344L56.8283 20.2048L59.2524 18.4166C63.0347 15.6244 65.6467 11.6232 66.6058 7.15095ZM58.0333 6.31674C58.332 4.45393 60.1729 3.06229 61.9533 3.32749C62.6781 3.4382 63.2973 3.81669 63.6964 4.39214C64.1238 5.01264 64.2641 5.80051 64.0903 6.61155C63.2741 10.4144 60.953 13.9624 57.7243 16.3466L57.3716 16.6066L57.4038 16.3968C57.7372 14.1825 57.678 11.9657 57.2673 9.83252C57.5827 8.67132 57.8466 7.49081 58.0333 6.31674ZM47.9854 8.69836C46.8796 7.16897 47.186 4.88648 48.6433 3.81282C49.1067 3.47296 49.6397 3.29402 50.1804 3.29402C50.3284 3.29402 50.4778 3.30818 50.6271 3.33521C51.3686 3.47039 52.0252 3.92869 52.4758 4.62515C54.5883 7.89118 55.4547 12.0416 54.8574 16.0106L54.1532 20.6798L51.3957 14.5867C50.4495 12.4974 49.3011 10.5174 47.9854 8.69836ZM58.341 44.5217C57.5596 45.3032 56.688 46.0009 55.7508 46.5957L6.80278 77.6352C5.95828 78.1721 4.87432 78.0498 4.16627 77.343C3.45822 76.6349 3.33721 75.551 3.87404 74.7052L34.911 25.7597C35.5071 24.8213 36.2048 23.951 36.9927 23.1619C40.587 19.5688 45.6309 18.0742 50.5872 19.05L53.5996 25.707C53.6653 25.8511 53.7618 25.9722 53.8687 26.0803L53.8623 26.0867L55.4187 27.6432L55.4225 27.6393C55.5307 27.7474 55.653 27.8414 55.7984 27.9058L62.4567 30.9182C63.4376 35.8797 61.9404 40.9223 58.341 44.5217ZM77.6977 32.8685C76.6228 34.3246 74.3416 34.6297 72.8135 33.5277C70.9932 32.2107 69.0132 31.0624 66.9251 30.1175L60.832 27.3599L65.5013 26.6557C69.4689 26.0546 73.6219 26.9248 76.8867 29.0374C77.5832 29.4879 78.0402 30.1432 78.1766 30.886C78.3015 31.5735 78.1316 32.2777 77.6977 32.8685Z" fill="white"/>
</svg>
