<svg width="30" height="30" viewBox="0 0 30 30" fill="none" xmlns="http://www.w3.org/2000/svg">
<path d="M4.68675 0.868219C4.68259 0.863709 4.67837 0.859258 4.67422 0.854806C3.74033 -0.160851 2.18064 -0.274775 1.1005 0.557841C0.594838 0.93839 0.234731 1.47556 0.0864822 2.07037C-0.0798066 2.73775 0.0303693 3.4493 0.396744 4.07392C0.789359 4.74318 1.1924 5.43329 1.60347 6.13686C5.50138 12.8098 9.91943 20.373 13.1011 23.5547C13.3159 23.7696 13.6058 23.8926 13.9097 23.8976C14.0605 23.9002 17.6432 23.945 21.2022 22.6564C21.2909 22.6242 21.3734 22.5825 21.4488 22.5329L27.9661 29.6115C28.4053 30.0883 29.1466 30.1172 29.6214 29.6798C30.0974 29.2416 30.128 28.5005 29.6898 28.0245L4.68675 0.868219ZM14.42 21.5471C11.4542 18.3554 7.12808 10.9496 3.62652 4.95509C3.21475 4.25023 2.81089 3.55889 2.41763 2.88846C2.37845 2.82157 2.25907 2.61815 2.50936 2.42978C2.68039 2.28973 2.86741 2.34039 2.96992 2.46258L19.7398 20.6767C17.5201 21.3673 15.349 21.5157 14.42 21.5471ZM17.5283 12.4711C15.3969 10.4282 15.444 6.70485 17.5707 4.66779C19.2675 2.97093 22.2551 0.393016 22.3816 0.284129C22.8716 -0.138241 23.6114 -0.083417 24.0337 0.406664C24.4561 0.896744 24.4013 1.6364 23.9112 2.05883C23.881 2.08496 20.8626 4.68929 19.2273 6.32453C18.6278 6.92409 18.2931 7.72536 18.285 8.58065C18.2351 10.2985 19.7019 11.7622 21.4189 11.7145C22.2742 11.7064 23.0754 11.3718 23.675 10.7722C25.3111 9.1361 27.9145 6.11859 27.9407 6.08831C28.3631 5.59823 29.1028 5.5434 29.5928 5.96577C30.0829 6.38814 30.1377 7.12786 29.7154 7.61794C29.6065 7.74428 27.0286 10.732 25.3317 12.4289C24.2835 13.4779 22.8769 14.0581 21.3867 14.0576C19.9209 14.0576 18.5526 13.4954 17.5283 12.4711ZM20.8482 7.55316L25.1826 3.16018C25.6369 2.69968 26.3786 2.69464 26.8393 3.14905C27.2998 3.60346 27.3048 4.34517 26.8504 4.80573L22.516 9.19871C22.0614 9.65939 21.3197 9.66407 20.8593 9.20984C20.3987 8.75543 20.3938 8.01372 20.8482 7.55316ZM1.1709 30C0.142302 30.0063 -0.396042 28.7343 0.342564 28.0001L6.85477 21.4879C7.99765 20.4326 9.56629 22.0031 8.51145 23.1447L1.99924 29.6569C1.77052 29.8857 1.47074 30 1.1709 30Z" fill="#FFA800"/>
</svg>
